<svg xmlns="http://www.w3.org/2000/svg" width="44" height="48" viewBox="0 0 44 48">
  <defs>
    <style>
      .cls-1 {
        fill: #3ebeda;
        fill-rule: evenodd;
      }
    </style>
  </defs>
  <path class="cls-1" d="M2894.66,1847.26a6.585,6.585,0,0,0-3.72-2.47l-4.01-1.01-0.39-1.15a6.476,6.476,0,0,0,2.52-3.02h0.47a3.219,3.219,0,0,0,2.64-5.09l0.01-.01a5.62,5.62,0,0,0,.59-2.48,5.5,5.5,0,0,0-3.07-4.95l-0.17-.09a3.629,3.629,0,0,0-3.62-3.54h-5.26a5.669,5.669,0,0,0-5.65,5.31l-0.16.16a5,5,0,0,0-1.21,5.13l0.22,0.66a3.19,3.19,0,0,0-.48,1.67,3.237,3.237,0,0,0,3.24,3.23h0.47a6.476,6.476,0,0,0,2.52,3.02l-0.39,1.15-4.01,1.01a6.686,6.686,0,0,0-5.06,6.47V1859H2896v-7.74A6.706,6.706,0,0,0,2894.66,1847.26Zm-8-1.88,1.1,0.27-1.72,3.87-0.5-2.47Zm2.87-7.38h-0.05a7.337,7.337,0,0,0,.05-0.81v-2.43A1.62,1.62,0,0,1,2889.53,1838Zm-12.92,0a1.62,1.62,0,0,1,0-3.24v2.43a7.337,7.337,0,0,0,.05.81h-0.05Zm0.14-4.85h-0.14a3.174,3.174,0,0,0-1.45.36,3.382,3.382,0,0,1,.82-3.45l0.63-.62v-0.33a4.042,4.042,0,0,1,4.04-4.04h5.26a2.007,2.007,0,0,1,.64,3.91l-0.5.17,0.51,1.53,0.5-.16a3.65,3.65,0,0,0,2.12-1.88,3.894,3.894,0,0,1,1.7,4.81,3.18,3.18,0,0,0-1.35-.3h-0.14a2.435,2.435,0,0,0-2.28-1.62h-8.08A2.435,2.435,0,0,0,2876.75,1833.15Zm1.47,4.04v-3.23a0.807,0.807,0,0,1,.81-0.81h8.08a0.807,0.807,0,0,1,.81.81v3.23A4.85,4.85,0,0,1,2878.22,1837.19Zm7.19,7.15-1.16,1.73h-2.36l-1.16-1.73,0.34-1.01a6.41,6.41,0,0,0,4,0Zm-5.93,1.04,1.12,1.67-0.5,2.47-1.72-3.86Zm-2.87,12v-4.31a4.033,4.033,0,0,0-1.19-2.86l-0.67-.67-1.14,1.14,0.67,0.67a2.412,2.412,0,0,1,.71,1.72v4.31h-3.23v-6.12a5.049,5.049,0,0,1,3.83-4.91l1.2-.3,5.04,11.33h-5.22Zm4.63-5.3,0.88-4.39h1.9l0.88,4.39-1.83,4.12Zm13.14,5.3h-3.23v-4.31a2.412,2.412,0,0,1,.71-1.72l0.67-.67-1.14-1.14-0.67.67a4.033,4.033,0,0,0-1.19,2.86v4.31h-5.22l5.04-11.33,1.2,0.3a5.071,5.071,0,0,1,3.83,4.91v6.12Zm-22.42-36.4a9.98,9.98,0,1,0-9.98,9.98A9.989,9.989,0,0,0,2871.96,1820.98Zm-18.3,0a8.32,8.32,0,1,1,15.23,4.63,7.4,7.4,0,0,0-4.1-4.08,4.116,4.116,0,0,0,1.35-3.05,4.16,4.16,0,1,0-6.97,3.05,7.429,7.429,0,0,0-4.1,4.08A8.294,8.294,0,0,1,2853.66,1820.98Zm8.32,0a2.5,2.5,0,1,1,2.5-2.5A2.5,2.5,0,0,1,2861.98,1820.98Zm1.64,1.9a1.655,1.655,0,0,1-3.28,0A5.723,5.723,0,0,1,2863.62,1822.88Zm-4.81.71a3.308,3.308,0,0,0,6.35,0,5.8,5.8,0,0,1,2.47,3.48,8.26,8.26,0,0,1-11.29,0A5.76,5.76,0,0,1,2858.81,1823.59Zm6.44,17.07,1.68,1.68h-4.15v-6.79l1.78,1.78,1-1-3.58-3.58-3.58,3.58,1,1,1.77-1.76v8.38h5.94l-1.86,1.86,1,1,3.58-3.57-3.58-3.58Z" transform="translate(-2852 -1811)"/>
</svg>
