<svg id="Layer_1" xmlns="http://www.w3.org/2000/svg" width="492.4" height="169.4" viewBox="0 0 492.4 169.4"><style>.st0{fill:#ffe000}.st1{fill:#fff}</style><title>Kompitech</title><g id="kompitech_color"><g id="Logo"><path class="st0" d="M154.7 0H63.5C28.4 0 0 28.4 0 63.5v91.1c0 8.1 6.6 14.8 14.8 14.8H106c35.1 0 63.5-28.4 63.5-63.5V14.8C169.4 6.6 162.8 0 154.7 0zm-16.3 66.8h-35.8v35.8h35.8c0 19.8-16 35.8-35.8 35.8v-35.8H66.8v35.8H41.6c-5.8 0-10.5-4.7-10.5-10.5v-61c0-19.7 16-35.8 35.7-35.8v35.8h35.8V31.1h25.6c5.6 0 10.2 4.5 10.2 10.1v25.6z"/><path class="st1" d="M237 48.7l-10-13.3h-3.7v13.3H218V18.4h5.3v12.4h3.8l9.1-12.4h6.4l-11 14.6 11.9 15.7H237z"/><path class="st1" d="M261.8 47.7c-4.2 2.1-9.2 2.1-13.4 0-1.9-1-3.6-2.5-4.7-4.4-2.3-3.9-2.3-8.7 0-12.6 1.1-1.9 2.8-3.4 4.7-4.4 4.2-2.1 9.2-2.1 13.4 0 5.9 3.2 8.2 10.5 5 16.5-.1.2-.2.4-.3.5-1.2 1.9-2.8 3.4-4.7 4.4zm-12.5-5.2c3.3 2.9 8.2 2.9 11.5 0 1.5-1.4 2.3-3.4 2.3-5.5.1-2.1-.8-4.1-2.3-5.5-3.3-2.9-8.2-2.9-11.5 0-1.5 1.4-2.3 3.4-2.3 5.5-.1 2.1.8 4.1 2.3 5.5zm50.4-17.7c2.4-.1 4.7.8 6.3 2.5 1.6 1.8 2.5 4.1 2.4 6.5v14.9h-5.1V35c.1-1.6-.3-3.1-1.2-4.4-.9-1-2.2-1.6-3.5-1.5-1.6 0-3.1.7-4.2 1.9-1.1 1.4-1.7 3.1-1.7 4.9v12.8h-4.9V35c.1-1.6-.3-3.1-1.2-4.4-.9-1.1-2.2-1.6-3.6-1.5-1.6 0-3.1.7-4.1 1.9-1.1 1.4-1.7 3.1-1.7 4.9v12.8h-5V25.3h3.6l.9 3c.9-1.1 2.1-2 3.4-2.6s2.8-.9 4.2-.9c1.5 0 3 .4 4.4 1.1 1.3.7 2.3 1.7 3 3 1.8-2.6 4.8-4.2 8-4.1zm27.4-.1c2.3 0 4.5.5 6.5 1.6 1.9 1 3.5 2.5 4.5 4.4 1.1 1.9 1.7 4.1 1.6 6.3.1 3.3-1.2 6.5-3.6 8.8-4.8 4.4-12.1 4.7-17.3.7v10.6h-5V25.3h3.4l1 2.9c1.1-1.1 2.5-2 4-2.5 1.6-.7 3.2-1 4.9-1zm-6.2 17.8c3.3 2.9 8.2 2.9 11.5 0 3-3 3-7.9 0-11-3.3-2.9-8.2-2.9-11.5 0-3 2.9-3.1 7.8-.2 10.8.1 0 .1.1.2.2zm22.9-20.8v-5h5.3v5h-5.3zm0 27V25.3h5v23.4h-5zm31.8-30.3V23h-9.4v25.7H361V23h-9.4v-4.6h24zm23.2 18.7c0 .5 0 1-.1 1.6h-20c.2 1.8 1.1 3.4 2.5 4.5s3.2 1.7 5 1.7c1.4 0 2.7-.3 3.9-.9 1.1-.6 2-1.4 2.7-2.5h5.4c-.9 2.4-2.5 4.4-4.7 5.8-2.2 1.4-4.7 2.2-7.3 2.1-3.4.1-6.6-1.2-9-3.5s-3.7-5.4-3.6-8.7c0-2.2.5-4.4 1.6-6.3 1.1-1.9 2.6-3.4 4.5-4.4 2-1.1 4.2-1.6 6.5-1.6s4.6.5 6.6 1.7c1.9 1 3.4 2.6 4.4 4.5 1.1 1.7 1.6 3.8 1.6 6zm-12.6-8c-1.7 0-3.4.5-4.8 1.5-1.3 1-2.3 2.5-2.6 4.1h14.9c-.4-1.7-1.4-3.1-2.7-4.2-1.4-.9-3.1-1.5-4.8-1.4zm27.6 20.2c-2.3 0-4.6-.5-6.6-1.6-1.9-1-3.5-2.5-4.6-4.4-2.2-3.9-2.2-8.6 0-12.5 1.1-1.9 2.7-3.4 4.6-4.4 2-1.1 4.3-1.6 6.6-1.6 2.8-.1 5.6.8 7.9 2.4 2.2 1.6 3.7 3.9 4.4 6.5h-5c-.6-1.3-1.6-2.4-2.9-3.2-1.3-.8-2.8-1.2-4.3-1.1-2.1-.1-4.1.7-5.5 2.2-3 3-3 7.9 0 10.9 1.5 1.5 3.5 2.3 5.5 2.2 1.5 0 3-.4 4.3-1.2s2.2-2 2.9-3.3h5.1c-.6 2.7-2.2 5-4.4 6.6-2.4 1.6-5.1 2.5-8 2.5zm28.9-24.5c2.5-.1 5 .8 6.8 2.7 1.7 2 2.7 4.5 2.5 7.2v14.1h-5V35.6c.1-1.7-.4-3.5-1.4-4.8-1.1-1.2-2.6-1.8-4.2-1.6-1.8 0-3.5.7-4.7 2-1.3 1.4-1.9 3.2-1.9 5.1v12.5h-5.1V16.9h5.1V28c1-1 2.2-1.8 3.5-2.4 1.4-.5 2.9-.8 4.4-.8zm-176.1 87.4c3.4 1.6 6.2 4.2 8.2 7.3 2 3.3 3 7 2.9 10.8 0 6.1-2.5 11.3-7.4 15.6s-11.3 6.6-17.8 6.4h-34v-76h33.1c6.9 0 12.6 1.9 17.2 5.6 4.4 3.3 6.9 8.5 6.9 14 0 3.2-.8 6.4-2.4 9.2-1.7 2.9-4 5.3-6.7 7.1zm-10.2-8c1.6-1.5 2.5-3.6 2.4-5.9.1-2.2-.8-4.3-2.5-5.8a9.51 9.51 0 0 0-6.5-2.2h-14.4v16.2h14.4c2.4.1 4.8-.7 6.6-2.3zm-5.6 33c2.5.1 5-.7 6.8-2.4 3.4-3.3 3.5-8.7.2-12l-.2-.2c-1.9-1.6-4.3-2.5-6.8-2.4h-15.3v17h15.3zm54.9-.1h30.7v15.3h-48V76.3h17.3v60.8zm37.8-51.2V71.1h16.6l-16.6 14.8zm0 66.4V93.7h16.7v58.7l-16.7-.1zm84.6-76v15.3h-22.3v60.8h-17.3V91.6h-22.2V76.3h61.8zm34 77.5c-9.3 0-16.8-2.3-22.5-7s-8.5-11-8.5-19.1h17.4c-.2 3.2 1.3 6.2 3.9 8.1 2.8 2 6.2 3 9.6 2.8 3.2.1 6.3-.8 9-2.4 2.4-1.3 3.9-3.8 3.9-6.5 0-.9-.2-1.8-.5-2.6-.4-.8-1-1.5-1.8-2.1s-1.6-1.1-2.4-1.5c-1.1-.5-2.2-1-3.4-1.3-1.5-.4-2.7-.8-3.6-1s-2.4-.6-4.3-1c-6.7-1.6-11.5-3-14.5-4.4-7.1-3.2-11.1-8.1-12-14.8-.1-1.1-.2-2.2-.2-3.3 0-7.2 2.6-12.8 7.8-16.8 5.2-4 12.3-6 21.3-6 9.2 0 16.3 2.2 21.3 6.5s7.6 10.3 7.6 17.9h-17.1c.1-2.8-1.2-5.5-3.5-7.1-2.6-1.7-5.6-2.6-8.7-2.5-2.8-.1-5.5.6-8 1.9-2.1 1-3.4 3.1-3.3 5.4 0 1 .3 2 .9 2.8.5.8 1.2 1.5 2 2.1 1.1.7 2.3 1.2 3.5 1.6 1.6.6 2.9 1 4 1.3s2.8.7 4.9 1.2c1.8.4 3.2.8 4.2 1s2.4.6 4.2 1.2c1.4.4 2.9.9 4.2 1.5 1 .4 2.3 1 3.9 1.8 1.3.6 2.5 1.4 3.7 2.3 1.1.9 2.1 1.8 3 2.8 1 1 1.8 2.2 2.4 3.6s1.1 2.8 1.4 4.3c.4 1.7.6 3.4.6 5.2.1 3.7-.8 7.4-2.4 10.7-1.5 3.1-3.8 5.7-6.6 7.7-2.9 2-6.2 3.5-9.6 4.5-3.9.8-7.8 1.3-11.8 1.2z"/></g></g></svg>